<svg xmlns="http://www.w3.org/2000/svg" version="1.1" xmlns:xlink="http://www.w3.org/1999/xlink" xmlns:svgjs="http://svgjs.dev/svgjs" viewBox="0 0 800 800"><defs><filter id="bbburst-blur-1" x="-100%" y="-100%" width="400%" height="400%"><feGaussianBlur in="SourceGraphic" stdDeviation="1"></feGaussianBlur></filter><filter id="bbburst-blur-2" x="-100%" y="-100%" width="400%" height="400%"><feGaussianBlur in="SourceGraphic" stdDeviation="2"></feGaussianBlur></filter><filter id="bbburst-blur-3" x="-100%" y="-100%" width="400%" height="400%"><feGaussianBlur in="SourceGraphic" stdDeviation="4"></feGaussianBlur></filter><filter id="bbburst-blur-4" x="-100%" y="-100%" width="400%" height="400%"><feGaussianBlur in="SourceGraphic" stdDeviation="12"></feGaussianBlur></filter><symbol id="bbburst-shape-1" viewBox="0 0 194 167"><path d="m97 0 96.129 166.5H.871L97 0Z"></path></symbol><symbol id="bbburst-shape-4" viewBox="0 0 149 143"><path d="M71.647 2.781c.898-2.764 4.808-2.764 5.706 0l15.445 47.534a3 3 0 0 0 2.853 2.073h49.98c2.906 0 4.115 3.719 1.764 5.427L106.96 87.193a2.999 2.999 0 0 0-1.09 3.354l15.445 47.534c.898 2.764-2.266 5.062-4.617 3.354l-40.435-29.378a3 3 0 0 0-3.526 0l-40.435 29.378c-2.351 1.708-5.515-.59-4.617-3.354L43.13 90.547a3 3 0 0 0-1.09-3.354L1.605 57.815c-2.35-1.708-1.142-5.427 1.764-5.427h49.98a3 3 0 0 0 2.853-2.073L71.647 2.781Z"></path></symbol><symbol id="bbburst-shape-8" viewBox="0 0 87 168"><path d="m12 12 31.2546 18.0749c16.4102 9.4902 20.014 31.6325 7.4603 45.8369L36.3296 92.1884c-12.5684 14.2206-8.9394 36.3916 7.5068 45.8636L75 156" stroke-width="14" stroke-linecap="round" stroke-linejoin="round"></path></symbol><symbol id="bbburst-shape-10" viewBox="0 0 145 145"><circle cx="72.5" cy="72.5" r="61.5" fill="none" stroke-width="22"></circle></symbol><symbol id="bbburst-shape-12" viewBox="0 0 170 151"><path d="M69.3728 54.2122 85 10.0031l15.627 44.2091c1.413 3.9958 5.19 6.6672 9.428 6.6673h49.312l-39.149 26.1447c-3.803 2.5401-5.399 7.3367-3.875 11.6488l15.179 42.94-40.9683-27.36c-3.3621-2.245-7.7453-2.245-11.1074 0l-40.9682 27.36 15.1785-42.94c1.5243-4.3121-.0712-9.1087-3.8746-11.6488L10.6333 60.8795h49.3112c4.2381-.0001 8.0159-2.6715 9.4283-6.6673Z" stroke-width="12"></path></symbol></defs><use xlink:href="#bbburst-shape-8" width="32.837379576968964" opacity="0.48014525250629003" transform="matrix(0.9760861103948572,0.21738423377567828,-0.21738423377567828,0.9760861103948572,240.89658381863364,48.55378656745114)" fill="none" stroke="#ffbd9b" filter="url(#bbburst-blur-2)"></use><use xlink:href="#bbburst-shape-8" width="38.370706751778165" opacity="0.14723375350850643" transform="matrix(1.249975351175152,-0.007849933410884437,0.007849933410884437,1.249975351175152,508.60934515788495,-458.77867129319407)" fill="none" stroke="#00a19d" filter="url(#bbburst-blur-3)"></use><use xlink:href="#bbburst-shape-10" width="18.091137661179832" opacity="0.752573778736924" transform="matrix(0.8758350645566947,0.48261054660354286,-0.48261054660354286,0.8758350645566947,533.9390376495475,-53.5798369512778)" fill="none" stroke="#ffbd9b" filter="url(#bbburst-blur-1)"></use><use xlink:href="#bbburst-shape-12" width="37.066164865747986" opacity="-0.08923093551694938" transform="matrix(1.650941734542345,0.5804234567505984,-0.5804234567505984,1.650941734542345,251.49376995202675,-614.2732480545717)" fill="none" stroke="#ffbd9b" filter="url(#bbburst-blur-4)"></use><use xlink:href="#bbburst-shape-10" width="13.570700252162505" opacity="0.7868940172857419" transform="matrix(0.9995689231368616,-0.029359289824768407,0.029359289824768407,0.9995689231368616,453.25118593461565,-63.22381745598551)" fill="none" stroke="#00a19d"></use><use xlink:href="#bbburst-shape-1" width="27.766500326431412" opacity="0.4257024860911769" transform="matrix(0.8709062374753213,0.49144920950855064,-0.49144920950855064,0.8709062374753213,354.40328443049805,-72.86947867790138)" fill="#ffa6d5" filter="url(#bbburst-blur-2)"></use><use xlink:href="#bbburst-shape-8" width="32.15822572087473" opacity="0.37913739114172085" transform="matrix(0.8341216591770919,0.5515805088032528,-0.5515805088032528,0.8341216591770919,331.1455359092787,14.581504488822873)" fill="none" stroke="#2c2891" filter="url(#bbburst-blur-2)"></use><use xlink:href="#bbburst-shape-4" width="26.18460682587831" opacity="0.5344960612205422" transform="matrix(0.8285463915618831,-0.5599204202650433,0.5599204202650433,0.8285463915618831,341.947385688595,-36.495977938178726)" fill="#ffa6d5" filter="url(#bbburst-blur-2)"></use><use xlink:href="#bbburst-shape-4" width="24.897256403085272" opacity="0.6550888272847948" transform="matrix(0.9221351425967863,-0.38686790870787496,0.38686790870787496,0.9221351425967863,272.8378124658216,186.19868083421528)" fill="#ffa6d5" filter="url(#bbburst-blur-1)"></use><use xlink:href="#bbburst-shape-12" width="33.61297668149547" opacity="0.4167772601841162" transform="matrix(0.9625042660460467,0.2712665439068391,-0.2712665439068391,0.9625042660460467,301.2197123212745,190.24326760049837)" fill="none" stroke="#00a19d" filter="url(#bbburst-blur-2)"></use><use xlink:href="#bbburst-shape-4" width="32.45647317841001" opacity="0.4485726940268163" transform="matrix(0.8697991209575212,0.49340600845705485,-0.49340600845705485,0.8697991209575212,737.7982766441024,-150.02487622059675)" fill="#ffbd9b" filter="url(#bbburst-blur-2)"></use><use xlink:href="#bbburst-shape-10" width="31.587882268621584" opacity="0.590687713106824" transform="matrix(0.8977730812194582,0.4404582779761554,-0.4404582779761554,0.8977730812194582,666.4605463918388,185.6410341068327)" fill="none" stroke="#2c2891" filter="url(#bbburst-blur-1)"></use><use xlink:href="#bbburst-shape-8" width="13.390995370758272" opacity="0.7539064889424772" transform="matrix(0.8961722138906328,0.44370639284369334,-0.44370639284369334,0.8961722138906328,592.4328034546664,147.30255166124147)" fill="none" stroke="#ffa6d5" filter="url(#bbburst-blur-1)"></use><use xlink:href="#bbburst-shape-8" width="45.726983487751454" opacity="0.18034155482455827" transform="matrix(1.1088673894079035,-0.5769862326847156,0.5769862326847156,1.1088673894079035,-118.08706394091368,229.32754439802937)" fill="none" stroke="#ffa6d5" filter="url(#bbburst-blur-3)"></use><use xlink:href="#bbburst-shape-4" width="34.291302947362205" opacity="0.2763900306123708" transform="matrix(1.2473442193309334,-0.0814395389335178,0.0814395389335178,1.2473442193309334,404.1960574434616,-417.89165109557274)" fill="#2c2891" filter="url(#bbburst-blur-3)"></use><use xlink:href="#bbburst-shape-10" width="21.651122219668707" opacity="0.1729844830040821" transform="matrix(0.8986357966842016,-0.8688807196144649,0.8688807196144649,0.8986357966842016,38.488644160774925,-322.1811404016787)" fill="none" stroke="#2c2891" filter="url(#bbburst-blur-3)"></use><use xlink:href="#bbburst-shape-8" width="21.030941091526426" opacity="0.7310161766956846" transform="matrix(0.9248622220151661,0.3803023406306744,-0.3803023406306744,0.9248622220151661,514.3141292236903,143.79633258666064)" fill="none" stroke="#2c2891" filter="url(#bbburst-blur-1)"></use><use xlink:href="#bbburst-shape-8" width="17.695629805296477" opacity="0.8774042027369013" transform="matrix(0.7972724531924104,-0.6036196114943218,0.6036196114943218,0.7972724531924104,198.66877611540363,57.823288994714005)" fill="none" stroke="#ff5c58"></use><use xlink:href="#bbburst-shape-4" width="29.893293863591783" opacity="0.05314815737736034" transform="matrix(1.518253704756714,-0.8702905767572765,0.8702905767572765,1.518253704756714,-203.88786969046626,-550.9178337937535)" fill="#2c2891" filter="url(#bbburst-blur-4)"></use><use xlink:href="#bbburst-shape-10" width="23.43553082548754" opacity="0.7235145015208202" transform="matrix(0.8797855343819162,0.47537081682863774,-0.47537081682863774,0.8797855343819162,700.8293861914563,71.52131068218529)" fill="none" stroke="#ff5c58" filter="url(#bbburst-blur-1)"></use><use xlink:href="#bbburst-shape-8" width="23.099256240199242" opacity="0.7153643128013699" transform="matrix(0.7919512865641978,-0.6105842773191199,0.6105842773191199,0.7919512865641978,234.37143942799608,183.57554324797735)" fill="none" stroke="#2c2891" filter="url(#bbburst-blur-1)"></use><use xlink:href="#bbburst-shape-8" width="29.829711318809863" opacity="0.3522330271794756" transform="matrix(0.9746159376844026,0.22388339378246144,-0.22388339378246144,0.9746159376844026,706.0266960256122,-170.96065858304425)" fill="none" stroke="#ffbd9b" filter="url(#bbburst-blur-2)"></use><use xlink:href="#bbburst-shape-4" width="35.83403183218871" opacity="0.3111004618198603" transform="matrix(0.92522500567102,0.8405109689237025,-0.8405109689237025,0.92522500567102,549.9325099687095,274.3338935476078)" fill="#ffbd9b" filter="url(#bbburst-blur-3)"></use><use xlink:href="#bbburst-shape-12" width="14.370745832417624" opacity="0.8182224573524579" transform="matrix(0.9492231069892001,0.31460370811191923,-0.31460370811191923,0.9492231069892001,453.41667326397067,-30.823496149451785)" fill="none" stroke="#ffbd9b"></use><use xlink:href="#bbburst-shape-1" width="22.703031950747004" opacity="0.5507533511314621" transform="matrix(0.9249498530039924,0.3800891598400209,-0.3800891598400209,0.9249498530039924,609.1191399700208,-164.79330797946457)" fill="#ffa6d5" filter="url(#bbburst-blur-2)"></use><use xlink:href="#bbburst-shape-8" width="29.210942227253142" opacity="0.5013339980050131" transform="matrix(0.8621017679984674,0.5067351789780503,-0.5067351789780503,0.8621017679984674,641.0092419864501,266.3073873853925)" fill="none" stroke="#2c2891" filter="url(#bbburst-blur-2)"></use><use xlink:href="#bbburst-shape-1" width="17.741660917494304" opacity="0.8808861635302832" transform="matrix(0.9905793712110371,0.13693980185156643,-0.13693980185156643,0.9905793712110371,393.45098356329555,-8.064128009845717)" fill="#00a19d"></use><use xlink:href="#bbburst-shape-4" width="12.510934226514236" opacity="0.867147832528847" transform="matrix(0.9017379179285487,-0.43228315647256693,0.43228315647256693,0.9017379179285487,195.9501013234206,96.09115242644503)" fill="#2c2891"></use><use xlink:href="#bbburst-shape-4" width="15.688426474067796" opacity="0.9544512278216237" transform="matrix(0.7168177674174074,-0.6972605598445416,0.6972605598445416,0.7168177674174074,95.86157278531539,124.67973786281112)" fill="#2c2891"></use><use xlink:href="#bbburst-shape-10" width="17.39126096611816" opacity="0.7877854435762804" transform="matrix(0.9858531634703891,-0.1676112766952934,0.1676112766952934,0.9858531634703891,231.69561865836306,-15.876544097578687)" fill="none" stroke="#ffa6d5"></use><use xlink:href="#bbburst-shape-4" width="18.139749559681476" opacity="0.8294967529188537" transform="matrix(0.9488264741018548,0.31579791329811263,-0.31579791329811263,0.9488264741018548,509.3075982162311,-58.644392924601675)" fill="#00a19d"></use><use xlink:href="#bbburst-shape-1" width="18.600411658140562" opacity="0.8089960485281067" transform="matrix(0.7858466761698191,0.6184213786350271,-0.6184213786350271,0.7858466761698191,673.2782945361796,0.6616329192058856)" fill="#00a19d"></use><use xlink:href="#bbburst-shape-10" width="29.97975435955173" opacity="0.4254536785043538" transform="matrix(0.8907259823604734,-0.4545406740303553,0.4545406740303553,0.8907259823604734,330.00183771351817,276.7496161996952)" fill="none" stroke="#00a19d" filter="url(#bbburst-blur-2)"></use><use xlink:href="#bbburst-shape-8" width="27.892934650508995" opacity="0.5587310794195128" transform="matrix(0.7775967308310062,-0.6287633292431515,0.6287633292431515,0.7775967308310062,7.437644746348155,247.64764193604117)" fill="none" stroke="#2c2891" filter="url(#bbburst-blur-1)"></use><use xlink:href="#bbburst-shape-8" width="30.73525617141135" opacity="0.09492629469494307" transform="matrix(1.433479994947339,1.003810292876984,-1.003810292876984,1.433479994947339,580.4703450880921,166.52501899779747)" fill="none" stroke="#ffa6d5" filter="url(#bbburst-blur-4)"></use><use xlink:href="#bbburst-shape-10" width="18.52210741127846" opacity="0.6917039570114424" transform="matrix(0.9464207643895998,-0.3229361186553863,0.3229361186553863,0.9464207643895998,127.77971460886974,-10.441923083695485)" fill="none" stroke="#2c2891" filter="url(#bbburst-blur-1)"></use><use xlink:href="#bbburst-shape-10" width="12.640671538613955" opacity="0.8456523191917186" transform="matrix(0.9261020659763675,0.37727306211059375,-0.37727306211059375,0.9261020659763675,508.04316703067366,-31.598228391665373)" fill="none" stroke="#00a19d"></use><use xlink:href="#bbburst-shape-1" width="25.302520262459833" opacity="0.45967947733222236" transform="matrix(0.902581912726916,0.4305181654915641,-0.4305181654915641,0.902581912726916,397.96537611503607,-147.0387650490609)" fill="#00a19d" filter="url(#bbburst-blur-2)"></use><use xlink:href="#bbburst-shape-4" width="17.211997171621878" opacity="0.734706155151989" transform="matrix(0.7694600186754578,0.6386949817087685,-0.6386949817087685,0.7694600186754578,650.6989951118173,-32.63645878816726)" fill="#ff5c58" filter="url(#bbburst-blur-1)"></use><use xlink:href="#bbburst-shape-10" width="29.313167792191503" opacity="0.44575543686653596" transform="matrix(0.7886169524769113,0.6148847877985184,-0.6148847877985184,0.7886169524769113,882.6460028609666,99.56294115400402)" fill="none" stroke="#ffbd9b" filter="url(#bbburst-blur-2)"></use><use xlink:href="#bbburst-shape-4" width="31.98178618362096" opacity="0.16383434792285234" transform="matrix(1.0841534641417863,0.6221826630414614,-0.6221826630414614,1.0841534641417863,507.30589412131354,-398.7605519072971)" fill="#ff5c58" filter="url(#bbburst-blur-3)"></use><use xlink:href="#bbburst-shape-8" width="34.176104575803215" opacity="0.3101160084770481" transform="matrix(1.0199806500966488,0.7225921902625418,-0.7225921902625418,1.0199806500966488,635.0970837156995,-328.63336931904246)" fill="none" stroke="#2c2891" filter="url(#bbburst-blur-3)"></use><use xlink:href="#bbburst-shape-1" width="34.468182465615214" opacity="0.15975974362586365" transform="matrix(1.1749399355061625,0.4266335054268182,-0.4266335054268182,1.1749399355061625,192.66665740157964,45.21044684077361)" fill="#ffa6d5" filter="url(#bbburst-blur-3)"></use><use xlink:href="#bbburst-shape-10" width="15.160789435148455" opacity="0.7870818854917817" transform="matrix(0.8571092356909035,0.515134698980136,-0.515134698980136,0.8571092356909035,539.789332960875,128.13814636781592)" fill="none" stroke="#00a19d"></use><use xlink:href="#bbburst-shape-10" width="27.833948767345195" opacity="0.47849972669017193" transform="matrix(0.7940303413917117,-0.6078781267239033,0.6078781267239033,0.7940303413917117,58.963944383729995,308.86650988803063)" fill="none" stroke="#00a19d" filter="url(#bbburst-blur-2)"></use><use xlink:href="#bbburst-shape-8" width="29.145088490060807" opacity="0.25470335586102966" transform="matrix(0.9731369358964825,-0.7845409511262016,0.7845409511262016,0.9731369358964825,214.57626623987483,325.74810464994687)" fill="none" stroke="#ffa6d5" filter="url(#bbburst-blur-3)"></use><use xlink:href="#bbburst-shape-8" width="24.81483424719066" opacity="0.6573855678237902" transform="matrix(0.7301953761592952,0.683238401025283,-0.683238401025283,0.7301953761592952,617.1029666368154,-47.35084102729704)" fill="none" stroke="#00a19d" filter="url(#bbburst-blur-1)"></use><use xlink:href="#bbburst-shape-4" width="22.93552640305921" opacity="0.6442615035846675" transform="matrix(0.8363050252051983,-0.5482644478867225,0.5482644478867225,0.8363050252051983,325.8288723729012,30.673306373236755)" fill="#2c2891" filter="url(#bbburst-blur-1)"></use><use xlink:href="#bbburst-shape-12" width="18.797209348607943" opacity="0.8034940674555411" transform="matrix(0.9852927815416369,0.17087461672800985,-0.17087461672800985,0.9852927815416369,537.043046240904,45.99974942642808)" fill="none" stroke="#2c2891"></use><use xlink:href="#bbburst-shape-8" width="33.45907499669775" opacity="0.36332999083886686" transform="matrix(0.9994528313175666,-0.03307624481859947,0.03307624481859947,0.9994528313175666,381.8297875470939,287.0314143596355)" fill="none" stroke="#ffa6d5" filter="url(#bbburst-blur-2)"></use><use xlink:href="#bbburst-shape-1" width="32.01395233274821" opacity="0.322343672402177" transform="matrix(1.2407333645677674,0.1519233953291837,-0.1519233953291837,1.2407333645677674,659.5845238321305,113.85815255303999)" fill="#2c2891" filter="url(#bbburst-blur-3)"></use><use xlink:href="#bbburst-shape-1" width="44.292661415227826" opacity="0.07188911171176071" transform="matrix(1.5931362867380636,0.7241662598315765,-0.7241662598315765,1.5931362867380636,295.67481686949077,-467.1838488422742)" fill="#ffa6d5" filter="url(#bbburst-blur-4)"></use><use xlink:href="#bbburst-shape-10" width="32.154783938125775" opacity="0.37494233044672365" transform="matrix(0.8545536217107799,0.5193631750721159,-0.5193631750721159,0.8545536217107799,496.2331300066701,-213.90726207658668)" fill="none" stroke="#00a19d" filter="url(#bbburst-blur-2)"></use><use xlink:href="#bbburst-shape-1" width="15.680437269191748" opacity="0.9296338109041851" transform="matrix(0.9094845237705881,0.4157377791610795,-0.4157377791610795,0.9094845237705881,566.9439626264813,63.65726127740851)" fill="#ffa6d5"></use><use xlink:href="#bbburst-shape-4" width="26.15359248911169" opacity="0.38507333885422734" transform="matrix(0.9991211068055916,-0.041916750059726116,0.041916750059726116,0.9991211068055916,474.396660020103,-255.41401823395978)" fill="#ff5c58" filter="url(#bbburst-blur-2)"></use><use xlink:href="#bbburst-shape-12" width="27.989744568291236" opacity="0.4959016682083687" transform="matrix(0.9238005416886744,0.3828740774402358,-0.3828740774402358,0.9238005416886744,713.7407709883587,171.211562592554)" fill="none" stroke="#ffbd9b" filter="url(#bbburst-blur-2)"></use><use xlink:href="#bbburst-shape-8" width="43.65743156253588" opacity="0.14177378630836035" transform="matrix(1.0054568494696443,-0.7426685154593381,0.7426685154593381,1.0054568494696443,357.72990188529604,283.4057403358055)" fill="none" stroke="#ff5c58" filter="url(#bbburst-blur-3)"></use><use xlink:href="#bbburst-shape-10" width="15.131071874689702" opacity="0.7479167929577735" transform="matrix(0.989172063345867,0.14676044799631838,-0.14676044799631838,0.989172063345867,350.9763522038078,56.31656239190289)" fill="none" stroke="#2c2891" filter="url(#bbburst-blur-1)"></use><use xlink:href="#bbburst-shape-8" width="35.5302406588651" opacity="0.19147778962719852" transform="matrix(1.2469763591917304,-0.08689050360618554,0.08689050360618554,1.2469763591917304,-5.219563707726728,-202.3923418736407)" fill="none" stroke="#2c2891" filter="url(#bbburst-blur-3)"></use><use xlink:href="#bbburst-shape-10" width="20.381520967318643" opacity="0.834521180811521" transform="matrix(0.9999318429292777,-0.011675165782898855,0.011675165782898855,0.9999318429292777,425.15868533320463,62.94433926878463)" fill="none" stroke="#2c2891"></use><use xlink:href="#bbburst-shape-12" width="28.63837438088292" opacity="0.46018120025996545" transform="matrix(0.8239874253347608,0.5666080857966924,-0.5666080857966924,0.8239874253347608,621.6176332716554,-180.57595105833005)" fill="none" stroke="#2c2891" filter="url(#bbburst-blur-2)"></use><use xlink:href="#bbburst-shape-10" width="45.38215823581573" opacity="0.11128951659831654" transform="matrix(1.2454714452176228,0.10630559320904183,-0.10630559320904183,1.2454714452176228,767.189381526466,87.48810196183109)" fill="none" stroke="#ffa6d5" filter="url(#bbburst-blur-3)"></use><use xlink:href="#bbburst-shape-10" width="32.510142512796556" opacity="0.18231775115269666" transform="matrix(1.182716961086683,-0.40457457898128163,0.40457457898128163,1.182716961086683,287.7552330048833,294.95539030157477)" fill="none" stroke="#00a19d" filter="url(#bbburst-blur-3)"></use><use xlink:href="#bbburst-shape-10" width="14.158280789256217" opacity="0.9663279659109301" transform="matrix(0.9403452289715163,-0.3402217664267037,0.3402217664267037,0.9403452289715163,270.7722751013447,19.424657966650898)" fill="none" stroke="#ffbd9b"></use><use xlink:href="#bbburst-shape-10" width="19.51772248610239" opacity="0.6971757281572697" transform="matrix(0.8758120747858121,0.4826522657766884,-0.4826522657766884,0.8758120747858121,639.7611077327928,-79.60429903024772)" fill="none" stroke="#2c2891" filter="url(#bbburst-blur-1)"></use><use xlink:href="#bbburst-shape-10" width="20.836699290938896" opacity="0.5244293151264097" transform="matrix(0.9736716074087859,0.2279552607991117,-0.2279552607991117,0.9736716074087859,406.4584954523997,-192.4346961556526)" fill="none" stroke="#00a19d" filter="url(#bbburst-blur-2)"></use><use xlink:href="#bbburst-shape-10" width="45.38115054104583" opacity="0.12718090006645666" transform="matrix(1.210313749999956,0.31247500149779023,-0.31247500149779023,1.210313749999956,802.2125386828175,-339.07467141152927)" fill="none" stroke="#ffa6d5" filter="url(#bbburst-blur-3)"></use><use xlink:href="#bbburst-shape-4" width="35.509494593922184" opacity="0.5477476202843402" transform="matrix(0.8235750892248301,-0.5672072570130895,0.5672072570130895,0.8235750892248301,-22.443195919575942,173.7941724403508)" fill="#ffa6d5" filter="url(#bbburst-blur-2)"></use><use xlink:href="#bbburst-shape-4" width="28.016266306417346" opacity="0.30931279047329985" transform="matrix(0.9253271819885006,-0.8403984806466634,0.8403984806466634,0.9253271819885006,-42.74742409048514,338.0307456889908)" fill="#ffbd9b" filter="url(#bbburst-blur-3)"></use><use xlink:href="#bbburst-shape-4" width="30.03665313535877" opacity="0.5410043785173865" transform="matrix(0.9122560647801737,-0.40962040021438323,0.40962040021438323,0.9122560647801737,21.604618512582817,-6.873870066853101)" fill="#2c2891" filter="url(#bbburst-blur-2)"></use><use xlink:href="#bbburst-shape-10" width="25.442213391844472" opacity="0.6084028608648708" transform="matrix(0.8499375993554564,-0.5268833620469369,0.5268833620469369,0.8499375993554564,180.09544297913055,-109.48338868268104)" fill="none" stroke="#00a19d" filter="url(#bbburst-blur-1)"></use><use xlink:href="#bbburst-shape-8" width="41.80945910897493" opacity="0.058357015354451924" transform="matrix(1.6878901418358165,0.4620896764627695,-0.4620896764627695,1.6878901418358165,195.72742764937772,-51.65514819089367)" fill="none" stroke="#2c2891" filter="url(#bbburst-blur-4)"></use><use xlink:href="#bbburst-shape-1" width="30.371198817299657" opacity="0.1759335312075163" transform="matrix(1.2257615425523596,0.24496661160178546,-0.24496661160178546,1.2257615425523596,848.6000100014099,-59.64075301972014)" fill="#ffa6d5" filter="url(#bbburst-blur-3)"></use><use xlink:href="#bbburst-shape-8" width="29.035000859196263" opacity="0.26736631686981094" transform="matrix(1.2070356999910064,-0.32490740057318007,0.32490740057318007,1.2070356999910064,572.2849353558972,2.1446180992238624)" fill="none" stroke="#00a19d" filter="url(#bbburst-blur-3)"></use><use xlink:href="#bbburst-shape-8" width="11.231517054190398" opacity="0.9206967283527462" transform="matrix(0.9807754582380205,0.19513969488036229,-0.19513969488036229,0.9807754582380205,452.28609544584606,-22.782491228405775)" fill="none" stroke="#ff5c58"></use><use xlink:href="#bbburst-shape-10" width="18.22933220050622" opacity="0.6874651103377587" transform="matrix(0.8773675589332977,0.47981888930243927,-0.47981888930243927,0.8773675589332977,447.12852603750804,77.31367896518191)" fill="none" stroke="#ffbd9b" filter="url(#bbburst-blur-1)"></use><use xlink:href="#bbburst-shape-8" width="37.82878798676472" opacity="0.19292357636432356" transform="matrix(1.173583406317085,-0.43035100606038823,0.43035100606038823,1.173583406317085,-157.52135089024884,-60.41287883069788)" fill="none" stroke="#00a19d" filter="url(#bbburst-blur-3)"></use><use xlink:href="#bbburst-shape-8" width="36.20865506536863" opacity="0.2352250290424196" transform="matrix(1.0571488244004712,0.6670355036043446,-0.6670355036043446,1.0571488244004712,987.8418714034135,-87.13726107749943)" fill="none" stroke="#ffa6d5" filter="url(#bbburst-blur-3)"></use><use xlink:href="#bbburst-shape-4" width="16.367859222989576" opacity="0.8735107046180788" transform="matrix(0.8097575531390324,-0.5867646079428165,0.5867646079428165,0.8097575531390324,109.56948526309753,109.69428854085288)" fill="#00a19d"></use><use xlink:href="#bbburst-shape-4" width="28.42359558534952" opacity="0.5638204857116016" transform="matrix(0.9880619678356249,-0.1540569625716162,0.1540569625716162,0.9880619678356249,306.43718158684453,202.45284748855886)" fill="#2c2891" filter="url(#bbburst-blur-1)"></use><use xlink:href="#bbburst-shape-4" width="14.629622095412046" opacity="0.8362287900908532" transform="matrix(0.8902583923041225,0.4554558100761028,-0.4554558100761028,0.8902583923041225,575.5336824460942,114.27381210209825)" fill="#ff5c58"></use><use xlink:href="#bbburst-shape-8" width="14.509618716426571" opacity="0.889293861866871" transform="matrix(0.7981947607022677,0.6023994721009055,-0.6023994721009055,0.7981947607022677,683.2904926646671,89.24117259646346)" fill="none" stroke="#ffa6d5"></use><use xlink:href="#bbburst-shape-8" width="21.37457036319539" opacity="0.6800952572789951" transform="matrix(0.999391330668161,0.034885071095275846,-0.034885071095275846,0.999391330668161,295.86027049906346,95.71484599333894)" fill="none" stroke="#00a19d" filter="url(#bbburst-blur-1)"></use><use xlink:href="#bbburst-shape-4" width="43.72988549556542" opacity="0.3248318048749419" transform="matrix(1.0852076848635623,0.6203420675023315,-0.6203420675023315,1.0852076848635623,357.89397642229926,98.3176233189198)" fill="#ffa6d5" filter="url(#bbburst-blur-3)"></use><use xlink:href="#bbburst-shape-10" width="17.47937086851295" opacity="0.8995052759067407" transform="matrix(0.8606482805779766,0.5091998989966244,-0.5091998989966244,0.8606482805779766,608.3548192358778,7.743594171774703)" fill="none" stroke="#00a19d"></use><use xlink:href="#bbburst-shape-10" width="34.18278891935806" opacity="0.3252065305676861" transform="matrix(1.1766391932237186,-0.42192441144100307,0.42192441144100307,1.1766391932237186,-88.18997865749331,-12.246224851805152)" fill="none" stroke="#2c2891" filter="url(#bbburst-blur-3)"></use><use xlink:href="#bbburst-shape-8" width="26.56079136778389" opacity="0.5920120304634504" transform="matrix(0.9077343138704593,0.4195454867140469,-0.4195454867140469,0.9077343138704593,721.1623828741701,111.02178063541993)" fill="none" stroke="#00a19d" filter="url(#bbburst-blur-1)"></use><use xlink:href="#bbburst-shape-1" width="36.62426837524738" opacity="0.2847114837796697" transform="matrix(1.2475924302157573,0.07754436193780251,-0.07754436193780251,1.2475924302157573,143.0231685659778,-282.8942636166832)" fill="#ffa6d5" filter="url(#bbburst-blur-3)"></use><use xlink:href="#bbburst-shape-8" width="20.817998695542787" opacity="0.601594491407514" transform="matrix(0.983605312746886,-0.18033465761217538,0.18033465761217538,0.983605312746886,429.5015246142948,-131.65954160623784)" fill="none" stroke="#ff5c58" filter="url(#bbburst-blur-1)"></use><use xlink:href="#bbburst-shape-8" width="30.3581229707474" opacity="0.09796960721311598" transform="matrix(1.3462246729590444,1.1181140952140414,-1.1181140952140414,1.3462246729590444,1194.2537599214202,-327.949162829845)" fill="none" stroke="#2c2891" filter="url(#bbburst-blur-4)"></use><use xlink:href="#bbburst-shape-10" width="17.978358833548572" opacity="0.8040812229027089" transform="matrix(0.814379010334456,0.5803333761956759,-0.5803333761956759,0.814379010334456,537.9083712876175,83.87839622403408)" fill="none" stroke="#ffa6d5"></use><use xlink:href="#bbburst-shape-4" width="25.007401933062134" opacity="0.591155082028474" transform="matrix(0.8962993100539535,-0.44344959893634706,0.44344959893634706,0.8962993100539535,56.391091581752846,-52.0191386415446)" fill="#ffa6d5" filter="url(#bbburst-blur-1)"></use><use xlink:href="#bbburst-shape-4" width="43.96593300925796" opacity="0.038315443003205885" transform="matrix(1.7409355008951375,0.1778864292828327,-0.1778864292828327,1.7409355008951375,682.7093220886651,-653.574878538386)" fill="#00a19d" filter="url(#bbburst-blur-4)"></use><use xlink:href="#bbburst-shape-1" width="34.7005246461288" opacity="0.25181122610871287" transform="matrix(1.248536120674105,0.060477726247408964,-0.060477726247408964,1.248536120674105,598.4855538470437,-374.18995772472107)" fill="#ffa6d5" filter="url(#bbburst-blur-3)"></use><use xlink:href="#bbburst-shape-10" width="22.251561342402674" opacity="0.7868103989681408" transform="matrix(0.8124409727500719,0.5830434510368133,-0.5830434510368133,0.8124409727500719,718.5357770557687,51.208861679709855)" fill="none" stroke="#ffa6d5"></use><use xlink:href="#bbburst-shape-4" width="36.185443856348044" opacity="0.132186327730482" transform="matrix(1.226092135583153,-0.24330654545478878,0.24330654545478878,1.226092135583153,1.1599998593008678,-358.88808865738173)" fill="#ffa6d5" filter="url(#bbburst-blur-3)"></use><use xlink:href="#bbburst-shape-1" width="37.52685668800417" opacity="0.06546076244323895" transform="matrix(1.5015686901955587,-0.8987722006295001,0.8987722006295001,1.5015686901955587,231.75804230226242,175.08574926834012)" fill="#2c2891" filter="url(#bbburst-blur-4)"></use><use xlink:href="#bbburst-shape-10" width="48.628276699426145" opacity="-0.0745006339349501" transform="matrix(1.67020315536003,0.522418816492476,-0.522418816492476,1.67020315536003,232.87663642870316,67.42481664934951)" fill="none" stroke="#00a19d" filter="url(#bbburst-blur-4)"></use><use xlink:href="#bbburst-shape-4" width="36.40604419508106" opacity="-0.07767619130516623" transform="matrix(1.397142042267567,1.05379984519282,-1.05379984519282,1.397142042267567,1144.3110880033225,159.4930799816899)" fill="#ffa6d5" filter="url(#bbburst-blur-4)"></use><use xlink:href="#bbburst-shape-1" width="45.86592253456824" opacity="0.2876465302302177" transform="matrix(1.0302118105260363,-0.7079291104712861,0.7079291104712861,1.0302118105260363,-90.5004442522218,-258.45973122264564)" fill="#ffa6d5" filter="url(#bbburst-blur-3)"></use><use xlink:href="#bbburst-shape-4" width="18.270107218937735" opacity="0.7214964444962867" transform="matrix(0.8190321362141371,0.5737476447433203,-0.5737476447433203,0.8190321362141371,524.0940454686003,-11.068936721085436)" fill="#2c2891" filter="url(#bbburst-blur-1)"></use><use xlink:href="#bbburst-shape-10" width="41.1380477470509" opacity="-0.08665756614562214" transform="matrix(1.749972841985279,-0.009749477625265256,0.009749477625265256,1.749972841985279,715.2981875621354,-635.8761008151541)" fill="none" stroke="#2c2891" filter="url(#bbburst-blur-4)"></use><use xlink:href="#bbburst-shape-12" width="24.7966533711108" opacity="0.17992334818059408" transform="matrix(1.0003562454151158,0.7495247709442115,-0.7495247709442115,1.0003562454151158,628.3995754049768,354.8005850412997)" fill="none" stroke="#00a19d" filter="url(#bbburst-blur-3)"></use><use xlink:href="#bbburst-shape-10" width="38.703914222473145" opacity="0.3660815542400401" transform="matrix(0.9975928880219542,-0.0693428422262646,0.0693428422262646,0.9975928880219542,608.2411394761673,129.60524138998443)" fill="none" stroke="#00a19d" filter="url(#bbburst-blur-2)"></use><use xlink:href="#bbburst-shape-8" width="32.367104537398525" opacity="0.457067398265968" transform="matrix(0.9994937687429076,-0.031815188889885195,0.031815188889885195,0.9994937687429076,607.2588239748507,-61.89600091706478)" fill="none" stroke="#00a19d" filter="url(#bbburst-blur-2)"></use><use xlink:href="#bbburst-shape-8" width="27.269941283853854" opacity="0.6014664318536084" transform="matrix(0.9188983055956337,-0.3944944916896477,0.3944944916896477,0.9188983055956337,408.5632567237242,50.5150683247432)" fill="none" stroke="#00a19d" filter="url(#bbburst-blur-1)"></use><use xlink:href="#bbburst-shape-12" width="34.28843379436453" opacity="0.28259850983464474" transform="matrix(1.2354898079163366,-0.1899077000409781,0.1899077000409781,1.2354898079163366,597.9689155788491,-221.86292049182953)" fill="none" stroke="#2c2891" filter="url(#bbburst-blur-3)"></use><use xlink:href="#bbburst-shape-4" width="21.968451751553843" opacity="0.6907459018934664" transform="matrix(0.9657682883458633,0.2594062705978819,-0.2594062705978819,0.9657682883458633,605.9077995208288,-70.69837573484386)" fill="#2c2891" filter="url(#bbburst-blur-1)"></use><use xlink:href="#bbburst-shape-1" width="22.151465944125906" opacity="0.6045462520363137" transform="matrix(0.7986996761773026,0.6017298623753617,-0.6017298623753617,0.7986996761773026,453.9998574379556,80.55956219803227)" fill="#00a19d" filter="url(#bbburst-blur-1)"></use><use xlink:href="#bbburst-shape-10" width="23.272336911039936" opacity="0.6386504221545312" transform="matrix(0.8587939448345577,0.5123211495883209,-0.5123211495883209,0.8587939448345577,526.3522400663594,197.95735861391813)" fill="none" stroke="#ffa6d5" filter="url(#bbburst-blur-1)"></use><use xlink:href="#bbburst-shape-4" width="24.555503575827522" opacity="0.6175409006591988" transform="matrix(0.8269504398784536,0.562274817135564,-0.562274817135564,0.8269504398784536,509.8889823033277,-74.14251211976574)" fill="#ffa6d5" filter="url(#bbburst-blur-1)"></use></svg>