<svg width="22" height="22" viewBox="0 0 22 22" fill="none" xmlns="http://www.w3.org/2000/svg">
<path d="M11.0001 0C4.9257 0 0 4.92479 0 11.0001C0 15.8602 3.15186 19.9835 7.52253 21.438C8.07228 21.5399 8.27411 21.1994 8.27411 20.9089C8.27411 20.6466 8.26391 19.7801 8.25918 18.8609C5.19894 19.5263 4.55319 17.563 4.55319 17.563C4.05281 16.2916 3.33183 15.9535 3.33183 15.9535C2.33379 15.2708 3.40706 15.2848 3.40706 15.2848C4.51166 15.3624 5.09329 16.4183 5.09329 16.4183C6.07439 18.1 7.66662 17.6138 8.29433 17.3328C8.39306 16.6218 8.67814 16.1366 8.99272 15.8619C6.54945 15.5837 3.98104 14.6405 3.98104 10.4256C3.98104 9.22461 4.41075 8.24333 5.11442 7.47299C5.00021 7.19593 4.62369 6.07712 5.22098 4.56194C5.22098 4.56194 6.1447 4.2663 8.24679 5.68949C9.12424 5.44576 10.0653 5.32354 11.0001 5.31935C11.9349 5.32354 12.8767 5.44576 13.7558 5.68949C15.8553 4.2663 16.7777 4.56194 16.7777 4.56194C17.3765 6.07712 16.9998 7.19593 16.8856 7.47299C17.5909 8.24333 18.0177 9.22461 18.0177 10.4256C18.0177 14.6505 15.4444 15.5808 12.9949 15.8531C13.3894 16.1945 13.741 16.8639 13.741 17.8902C13.741 19.362 13.7283 20.5466 13.7283 20.9089C13.7283 21.2016 13.9263 21.5446 14.4838 21.4366C18.8521 19.9804 22 15.8586 22 11.0001C22 4.92479 17.075 0 11.0001 0ZM4.11989 15.6699C4.09566 15.7245 4.00969 15.7409 3.93136 15.7034C3.85157 15.6675 3.80676 15.593 3.83263 15.5382C3.85631 15.4819 3.94247 15.4662 4.02207 15.5039C4.10204 15.5398 4.14758 15.615 4.11989 15.6699ZM4.66097 16.1527C4.60851 16.2013 4.50596 16.1787 4.43637 16.1018C4.36442 16.0252 4.35094 15.9226 4.40413 15.8732C4.45823 15.8246 4.55769 15.8474 4.62983 15.9241C4.70178 16.0017 4.7158 16.1035 4.66097 16.1527ZM5.03218 16.7704C4.96478 16.8172 4.85457 16.7733 4.78645 16.6755C4.71905 16.5777 4.71905 16.4604 4.7879 16.4134C4.85621 16.3664 4.96478 16.4086 5.03382 16.5057C5.10103 16.6052 5.10103 16.7225 5.03218 16.7704ZM5.65996 17.4858C5.59967 17.5523 5.47125 17.5344 5.37725 17.4437C5.28107 17.355 5.2543 17.2291 5.31477 17.1627C5.3758 17.096 5.50495 17.1148 5.59967 17.2047C5.69512 17.2933 5.72426 17.42 5.65996 17.4858ZM6.47131 17.7273C6.44471 17.8135 6.32103 17.8526 6.19644 17.816C6.07202 17.7783 5.9906 17.6774 6.01574 17.5903C6.0416 17.5036 6.16583 17.4628 6.29134 17.502C6.41557 17.5395 6.49718 17.6397 6.47131 17.7273ZM7.39466 17.8298C7.39776 17.9205 7.2921 17.9957 7.16132 17.9973C7.0298 18.0003 6.92342 17.9269 6.92196 17.8376C6.92196 17.746 7.02525 17.6715 7.15676 17.6693C7.28755 17.6667 7.39466 17.7396 7.39466 17.8298ZM8.30175 17.795C8.31741 17.8835 8.22652 17.9744 8.09664 17.9986C7.96895 18.022 7.85073 17.9673 7.83451 17.8795C7.81867 17.7888 7.9112 17.6979 8.03871 17.6744C8.16877 17.6518 8.28517 17.705 8.30175 17.795Z" fill="white"/>
</svg>
